<mxfile host="app.diagrams.net" modified="2024-05-10T09:39:25.445Z" agent="Mozilla/5.0 (Windows NT 10.0; Win64; x64) AppleWebKit/537.36 (KHTML, like Gecko) Chrome/124.0.0.0 Safari/537.36" etag="wykHUlp5yNQoXNhIK_f6" version="21.6.8" type="google">
  <diagram name="Page-1" id="ObFOfpTm7O6dgKrlvoHp">
    <mxGraphModel grid="1" page="1" gridSize="10" guides="1" tooltips="1" connect="1" arrows="1" fold="1" pageScale="1" pageWidth="1169" pageHeight="827" math="0" shadow="0">
      <root>
        <mxCell id="0" />
        <mxCell id="1" parent="0" />
        <mxCell id="gHiC4rJ2sROC7v4eEeCG-1" value="GitHub" style="dashed=0;outlineConnect=0;html=1;align=center;labelPosition=center;verticalLabelPosition=bottom;verticalAlign=top;shape=mxgraph.webicons.github;gradientColor=#DFDEDE" vertex="1" parent="1">
          <mxGeometry x="80" y="160" width="80" height="80" as="geometry" />
        </mxCell>
        <mxCell id="gHiC4rJ2sROC7v4eEeCG-7" value="" style="rounded=0;whiteSpace=wrap;html=1;strokeColor=#CC6600;" vertex="1" parent="1">
          <mxGeometry x="280" y="80" width="160" height="280" as="geometry" />
        </mxCell>
        <mxCell id="gHiC4rJ2sROC7v4eEeCG-29" value="" style="edgeStyle=orthogonalEdgeStyle;rounded=0;orthogonalLoop=1;jettySize=auto;html=1;" edge="1" parent="1" source="gHiC4rJ2sROC7v4eEeCG-9" target="gHiC4rJ2sROC7v4eEeCG-18">
          <mxGeometry relative="1" as="geometry" />
        </mxCell>
        <mxCell id="gHiC4rJ2sROC7v4eEeCG-9" value="Jenkins" style="shape=image;verticalLabelPosition=bottom;verticalAlign=top;imageAspect=0;aspect=fixed;image=data:image/png,iVBORw0KGgoAAAANSUhEUgAAAIAAAACxCAYAAAAMGLXDAAAABGdBTUEAALGPC/xhBQAAACBjSFJNAAB6JgAAgIQAAPoAAACA6AAAdTAAAOpgAAA6mAAAF3CculE8AAAABmJLR0QA/wD/AP+gvaeTAAAAB3RJTUUH4QkQFyIhvne04gAATTJJREFUeNrtnXd4HNXVxn9TtmlXvVqS1eVewAY3iuk9EEIPhB6SEEINEEgBEhJCSCCEBAiQRu+Q0LsxtnEH4y6rN1tW395m7vfHrlaz6jKSbfg4z+MHtHV27ntPeU+5Ev/P5AhQGwsKJoEyQ0j6DAkpXwjSBKRKkkgDKRXQFEURZrMSUmRVRxJeGbnB5fFtQmhVSFIVIbWysqmy8at+P6Sv+4LPnTvX1NXWdphAOkWGowRMBcxj9PF1CD4C6SOhSkuqq6vrvwHAfiBlZWUWgtqpQhZnITgOSN5LX71FQjylK8qTXxUwfK0AUDKx5GBkcZGMOE9A2j68FA2Jl4Um/6G6oXrtNwAYR8nPz7dZZNMFyOInCGaO5r0T83I4ZN5sZkwrp2jiBHJzMrFaLbHnw2GN1o4udu5qY3dbOzW1jWzcWsW2imr8geBIvkIg8YIqxM+219XVfAOAMVbzejD8Q0niViBrpO8zqSqnHH845595ElMmFe/Rd4c1jYodtSxf/TkfLl3N5u3V6Lo+BArwyIibKuvqHor8+Q0AvtQ1lxYVnYPgLqBoxG+SJI47aiHXXHE+Bfk5Y3pBbR1dvL9kJS/8732276gZ4mZLL3lDgQubm5u93wBgD6S0sHCRQLpXgvnGx2VZZsaMGRx11JG0trby1FNPx73v4AOnc8OPL2TG1LJxv8ZNWyt5/r/v8dpbSwiFwwPd8nWqHj51e0ND8zcAGKFMKigo0WT59wjONF5zTk4Op59+OkcfezSJDgfhcJhnnnmWJ594EoDC/AncdM0lLF40d4++V+ha5J/QQeggBEIIIPJfCQlkKbK3kZAUBUlSkBSV5l2tPPr4S7zy+oeENa3vRzfJEqfsqK39/BsADCHTM6c7AjbPz4XEdUDMO5sxYwbfu/ACZs+ejSRFfsKSJR9z//334/V4URWFSy84nR9cfCYWs2n4hRYCoYUQWghd1xB6GHQtuth7JrKsIpnMNO3q4jf3PiZWrt3Y9153Cl0+bl9HCfstAMoKis8SkrgPyIst/MzpXHLxxcyYOTO2cJVVVbzw3At88skn6LpOWXEBd99xLZNLC4dZdA096EcLBxFaaFx/iwCeePmj7gf++WKyrsU5i11REKz5BgBRmZKXlx4ymR5EcHbPY2mpqVz+g+9z1JFHIkkSQgi2bdvOp5+uYvmyZTQ2NiBJEuecfjw/veoirJbBiT49FEAL+dDDob3ukC9bs9l3wx0PmcOaphhBoMvS8TU1Nav/3wOgvKhovi54BZjQ89gJJ57AFVd8H7vdDsDOnbtY8vFSmpt3snb1Kjo6OjCbTPz61is55bjDh1z4cNCD0ML79DcuW7OJ6+94SNc0XTaCQEYs2lFXt/X/LQBKi4rORfAvwApgt9u59tprOHzx4TF1v2r1GtasWYeu66xfv5ZdzTtJS03mr3f/jFnTJw3qyIV8znFX86ORj1du4MY7HxGaphvvf7VkUhdUVla27s1rUfaHG1JSVHSeJHgaMAHk5eZy731/YvqMGRFvqaOTV/77GhUVOxBC0NzUROWOHWSkp4rHH7xTmlw2MB2gBX2Evd0Ioe1XZq4oP4fMtBRp6aovjA+nootF6ZkZT3V0dGj/bwBQVlS0GMGLgApQXl7O3ffcTUZmZiReamzm5Vf/h9PpjLBw4TBr16wmOcmhP/7gnXLhxAkDevVhnxMt6GV/lSllBXR2u9lSUWd8uEDoWlFnd/cr/y8AUFBQkCojfUw0W1daVsYf/3QPiYmJAFRVVfP6m28RCvWq721bt+Ds7tL+8+CdSlnxxIF0PiFvN0ILsl+LJLNo/gGs+2I7O1vajWzhrLTk1ObO7q71e+My5H15D1RJuZMoj5+Wns6v77gdm80GQG1dHW+8+TZhA5vW1tZKbU0Nv775SmXKAGpfCJ2gp3O/svf91l2SMdmSsCRmYHOkct9vbyYzPbXPi/R7JxUUlHytAVA6sXSGhPgBgKIo3H7bL8nIzACgtbWVN998J46IcbtcfLZuXeDEYw8NfOvExYPs/C6Eru3Hm17BZE9DNlljj6WnJXPPr69DViRDTCo5NOR798om3Gd3Qw5fDZICcPwJxzF5yhSCwSCrV6/mmWeeo729HaELzBYzCGht3S0URVF+euWF6kBUS9DbPaIQT1bNyCYrsqwghEAL+dFD/r2j8axJSHJkz3U73WzcugOvx4/ZbOLs046Tnn35HWN8dlrxxOLDahpqPvnaAeAIUBuQzuzZ/bkT8rj77j+wauUqPB7PoBvo7G8fp2Vnpfe75rDPNazalxQVkzUJSVHjYmBZNaMpZsJ+5/jiXTEhqybCmsafH36SZ158i0Bw6GuWJXED8LUDgFJfVPRTSZAKoGkajz322IAvTExMJDc3l+bmZlwuF93dLku/UC/kRxtmBysmG6rNAURYxI+Xr+O1dz/msy+2EwgEmD6llO+dcQzzZo1ftlBSIzmJu+79B8+9+s5IWZpvTSooKKmor6/+WhBBpfmlZULRXpDggIGeN5lMLFy0kIULFzJz5gwyo6Hgww89zCuvvEqiw84nb/4LVVF6SR53B2IISle1OlDMCQDsqG7gF799gM3bqgZwziRu+cl5nHHiYeOk/h24/TqHn3IJmqaP+H1CcHt1fe0dX3kNUJJfUo6ifSQZkjs9YrPZOOPMMzjt1FNJSk6Ke87lcjFhQm7k/90eqqrrmVweqeQJ+11DLr5issYW/633l/GL3/51ULUrhOC5/308bgDQtTCNjU0UTczhygtPZe6sSSTabbR1Oln3RQWvv7eSFes2DwBMvgvc8ZXWANOnTzf73Z41wKy+zx12+GFcddWPSUlJASAUClNXV09VVRW1dfX4/X58Ph8fffA+AA/8/mccedjBaOEAYW/3UPEWFkc6SDIvv/4Bt/3+obiowp5g5YBppaSlJqGqMjtbOsmfkMktV507brfaHwiiKDImdWD65fPNVdx+739oaI5ng4Umz6purN74ldUAfrf35r6LrygKP77qx5x88kmRhQ+G2LBxI+vWrscfCPQzDT3S0eUEAZrfM7TdNyeAJLNq3UbuuOfh2OLnZKZx9WWnc8TC2SOqFRg7EVgtQ3/fAdNLefqvP+e6Ox5i7YbtBgdWnAB8NQGQm5ubICGuFX0W9Je/+gXz50cqu7Ztr2DJkqUE+iy8ESw9aWCzSUUL+SNFG0OGexY8Xj+33vkAWjhicxcvmM3vbr4krvJ3f5MEm4X7b/8Rl/70T2yvauh5+Hjgnq8kEWQ1mc7tW6N//fXXMX/+fHRd5/0PPuKdd94bdPEj9lOP7eCEBAta0DOCsEvh+VfeoWV3hGY9+tADuecXV+zXix+7Z1YLt99wIbIiR3WHWHDEOG3W8WcCJenbfW3+UUcfha7rvPfeB2zevGXYjwiGenn97PSUEbJ9Eq+88UHEAS2YwB3XX4SiyHxVZFJxPovnz+px1OxNRUUzvnIAmD59ulkS4kjjY989L+JkrV27nm3bK0b0OUbtkJ+dOqL3dHc7qa5rioR3V52HzWbhqyYnHTXPEKVIB33lABD0eKaB5IiFgqWllJSW0t7ewarVIy+D83ojKj83JxObeWSBS2fbbgBOOHI+c2aW81WUeQdMQZYjv1dIovwrBwAdpsR5ubMiKm3lqtVDdtL0A4AnktefMXXkCbKcjEROOuYQLj33BL6q4rDbyMlK7wkiyr5yAEBIcagtKSvF4/ZQVTU6ZtPjcUcAUF4wCtdD4jc/vZCSidl7dOkNza0EQ3uvfrC9yzkgEVQyMdbF9BUEgCQyjH9mZmZQVV096np7t9sFwLRRACACQH2PL33j9hreeH/VXgOAoqj8/Yk3+j1eVDAhqgAoZRyIu/F2i+OK8+12O01NO0f9IR6XB1mWmVo2cXyvVpZQLHZMjjTS0rN46pX3Rw1WTdPY1doxqu802ZJIychjy45aPttUGfd0VlpSLBIoLCzM+coAoKyoaLEkpJPiAzOJ1va20TmSwSBhLUxeVtq4xvCyyYLZnoFqsSPLKtOmllPTsIs1BkZuJLJu4w7O/MGvcXt8IzBTCuaESIGIxWKirCifx198N+41yUmOXgLNUC6/XwOgpLDwZCF4SyBMgzl0IxW/3x8FVO74Lb6iYrImx9rMADLTU5k+uZgnX3p/VJ+VaLfh8wVYv3HHsK9VrXYkuTcvcNCBU/lk9Saqanv7RpMddiNikvZ7AJQUFZ0nIb0C2PojnrgavxFpgOgghvzM1PEDgGoZ0Lqe/q1jWb52M19sHbnTmpGeAsAbHw7nP0hIpniNdspxixFC8Ogzb/YCKjHB4NJIM/drAJQUFf1IEjxJtL6/324OBFDV0TGaerSmP81wI8Y8WBnEzJ9+8lFkpqdw2x//g2sEKh0gMy2ZvAkZfLj8M6rrdw6h/iMmsfcaBNPLJzKpOJ/3P1lPRU1kAFmCkcCS9N8VFxfP2y8BUFJUdK0keND4mVYpflu5nC5UVRnl4kRzAOr4Ze60kHfAkjKL2cT5Z5xIffNubrnrMQKBkVUbHzRrMrou+POjLw35u8J+F1rIR8jnJORuIxzwcOpxCxFCcM9DzyOEiAcAkkPW9Q/KCgsX7lcAKC0qOkcS/Mn4WLosc2Na/HCubqcTh91BW1srFdu38/ln69nw+Wds27qFXc070fr30WMymaPvdTOeKiDo6STk7UILeNCCHsJ+NyFvF2edvICczDQ+XbeFn/7m7wNeY1/51jELAFi+djMfrfh8cOAFfXidnbS0tLC9qoEln25gc7RRZP3GHbzz8doBKGzJIZBeKy4unjwWP/1LZ5jKiooWC8F/jGCaoCj8NTsdhxSPrxXLl7Ft2w66ujoHvhhVpai4mLLyScjR6ll7QkT1d3aPIwB6zE04iB6Obyixms1cc/l3uOWux1ixbjNvfbSGU6ILPJgcOKOMksJcquua+d1fnmbWtBLSU+L9t6WrNnLvIy/0K/4wSme3G6t5wE7ndEkXbxUVFS2qra3dtc80QEl+yUwheBXD8IYMReHv2ekUDmDrV65cPejiQ8RBrNyxg2WfLCUQ9f4tViuqqrKjYde4LXxzSzvn/+Qubvrto/z1X6/y1ker2bS9lm2V9XywbD3P/e+j2GsNOfoh5YcXnAxAR7eL2/74n358giQx6OLLssQV55/EuaceEZfBNFpUCYoVIb0+PXO6Y59ogEn5+Xmaor8OpPQ8liBJ3J+ZRm508V8fIuSzJ1iZUl6C2azS0eWisrouVizpdrlYs2oVCw45BFVVycjIZFNdM5qmj0tKd/3GHWyrrGdbZf0INN7IwtGjDjmQmVOK2bithk/XbeHlt5fF1RsectAMjj70QD5Y9lmcz3HovBlces4JTCkriDKEvT7ToRYLn/iNdRNirj/B89/p06efuHnz5uBeA8ARoDYo6gtAgfGD7s5MY3K0zKo6FOLv3a5+7505tYwrLz+HRQcfELeYTc0t3HHPw6xYHemYdbqcbNu6hRkzZ5GRmcmuXTupqG5gannhmANg7qxJZKQm0dY5dG/AEQtnc/Iw6r93t0r8/Orz+d7VdxEKa9z79xeZObmYSSX5sV3+h59fQXNLOw3NrVjMJqaWFWDpUzamyL33aIZFJVuVedEdF5Ec5fd4fgPcvCe/fY+aQ5XCwt+DdI5BHfGr9BSOTugN/R/qdrGpTwXuReedyj13XE9RQW4szdkjSYkOTjjmUD77YhtNOyOpXJfLRUFhEWazmbq6Worys5k1dexb5hLtNo4//GBkWcLl9uJ0e2KhoSxLFOXncPl5J3Ld988clQZKT01CF7DuiwrCmsaKtZs58aj52Ky9dj3RkUD+hAxystIGjJAkSeLRpyO8wEKbhdPsNto0nZpwnDO6KDUleW1nd/eO0f72UScXyoqLjxO6eMvoP1yRnMgVyYm9zhRwYuMu2g0p3/POOJGfX3957O/du9uoqmskf0IWE/N71Wpjcwsnn3tVzBwcMGcO2dk5vPPWmyxeMIt7b/vRuDuDwVAYV9R8ORJsX6p4VNcFV956f4xSPmB6KQ///rpBK4P7SiAYYtFpVwNwXYqDxTYLGvCrdieb4zdYiy5Ls2tqalrGzQksLS3NErr4t/F9B1rMXJYU74fUBMNxi180MZebrr44ekN0fn33gxxzxg/5/rW/4cRzfsJ5l93Ipo0bEVqY/NxsFh/SW/zicbtpbIw4XlU1e2c6u9mkkp6SRHpK0peuHJZlid/89OJYFPD55irufeTFEb/f4+vtekqIRlUKcEOKg6R4LZotaeLx0a7paF4sSeHwPzAkJJJkmd9kpKL0IXxq+pAqV152NqaoY/jU82/w/P8+QNd7veKN26q56Orfsmz5CkKeLs4+9ejYczsqKti8MVIR3dLePaqumv1FMjNSuOeXV2A2Re7B868t4YkR5hg8nl4ApBgWPE2RuSbFEafCJYnjSguLbxgXAJQUFf1AIJ1itB23paeQo8SrspDQ2WEYpJyQYOWow3sHe360bDV/++3VXHjmsf1U3S2/f4z2jg5mT8odcOeZTOpIhzTvdzJ7Wik/v/r82N/3/+Nl3vhg+HoDtyGSSlXjl2uuxcxJdmtfVuvO0ZBEIwJAUVFRjiT4nfGxcxLtLLZZ+/D2gjYtTMAQ85aXFMbGtoXCYe648VIWzJkaY7xOOOJgfv6T88nOSKWr28Mzr36I2aQyY0pxnJN28tHz+defbsKeYOWrKqccs4DzTjsyRgXfef+TrP5825Dv6XZ5YxsuRe6/XBcn2ikxxQVzZkWIB8Y0DFR0/oxELB2Xr6r8pA+zJYA2LYQmBEYlnZ3V2xJgUhWyUx0IBNurGsifkMlvbrwEWZYoLsjh8hv/xIfLP+PKi07l7lu/j9frx+GwkZxo5+si133/TJpbOvh45QaCoTDX3vYgd950CUcdcuCAr9/ZEikuccjygItlkuCaZAfXtXfRY1WF4NiyoqLTKmtr//ulNUBZYeFCpN6hjQA3pCZj6WP3O7QQwejOtxueCxpUtq7rsWZOnz/AwjlTY+HggTPKWLxgNrWNLWiaTmqyg7wJGV+rxY8QOzJ3/eyyGJ8RCIb42V2PDZozaGqJFNCkyoMvVaFJ4eQ+mlEI/pKbm5vwZQEgCUm63xguLrRaOKxPgsKja/gMXn+GIVZu6+ht4BThUNQUaGiaTnafHP/l550UpYS1r9SiqtZEFIt9xFG1xWLirp9dFqtw0jSdl94ceA5E864IADKH4R/OS0wgLR4kBVbV/NMvBYDoXP6DY8ZFkrgpNSWevxeCrj6jWYyOYUVlHcGeKV965L+qImO1WrD18SGmTSrg6ktP78eG7c8iqxYUsw3VYke1jFxbTczN5PB5vc0+aamJA2uAKAAmqkMDIEGSuCApoU/Yxs/K8sry9xQAMkL83PjA95LsTDQpcXa/XQv169CfqMpY5R5SJcQXmytiJqCH3Zpcko9tgIXuGx3s9yrd3Ati4/CnkYhxAyycM63f85qmU1UXKQ+baBreXTvSZmFS/OtsQg3dvEcAKCkqOgekGERTZZlLEuMJH5ceJjRAOY0sSUwyFHC89vbHBshECexFs9E0wVdZdF0gK5EIR2ghQr6uEb9X03TWfrE9ZhIOn99vdAJ1TS34/MHophqeOZSAS5L6mn3p+0NpAXlQ0keIW+PDPgdWg40JIXAOURxxkIHvfueDFdEq2V4becZJhzMxL/MrDYB7H32RkKahBX0EPV0jHkTtdHv5679fpWlnRL2XF+UNGN5u3VEfW9j8EVLHU80mppnjtIBFmMI/HRUAyoqKjjPufqsscZYjHlld4aHLoxbZzLHldnt9/POpV5EMvoHNZuHg2ZO/sovvDwR56Y2lrFn7GWG/i5GMnm9uaeePDz/PSRfeyuMvvgdEcgO/uvZ7A75+6466GOuXII08bXOGo089ruDSkpKS5BHzAEJwrfHvMx12kg1eqE/ocWTPQJIhy8yxmFkXDQOfeO41vnPyYjITVb4O0tLWRTAUZvXaDcydNnSKentVA4+/+B7vfbIuRmWnJNu55rLv8K1jFsaVoxvl8y2RauRJptHds7kWMyUmlere1rZEWdMuA+4dVgOUTZxYSmQiRYRoAM43xOIC6NZGFqadZqApff4AP73tfkL612L9Y8WaL765lMadrQMApJMX3ljKpTf8ke9e9TveXrIGTdOxmE189/SjefmR2zn12EWDLn57l5PtVfUxtT5a+XYfilggXTlQnNoPWkJWLwERe+EJ9gQyDarbo2uER9hzN8tiYrbFxIZoNe2mrZX8+t4n+NW13x0yHdq0s403l6zhiEMOorxg//QTMtOSKcjNor55N2f94NdMn1xEcqIdnz9Aw862WPzeIw67jdNPOITvnnY0WZkpAzqFb3+0hpysVObOmsTKtVtjCbMZ5tFrzUOtZp5UZHb3Js9Ky4qKFlfW1i4ZCgAKQlxoxMmpBtsvAPcoZ/FenmTnhrbuGEv45gcraGlt565bLu1XKAnwwhtL+fOjL+EPBLHYHEydVBK1sfufXHLu8dxx7xMEQ+F+PX0QKXubd8AUjj70QI5YMHvAIRVCCN5duo5HnnwdR4KNf913EwDL126KxfdF6ujrdmRJ4gibhecN1UMCLgEGB0BxQfFRSCLWgTlBUTjAcP6OT+iER9ksOVFVuDLZzp+7eqt6132xndMvu43Tjj+EQw6aTnJiAl1OD8+9voRPVm6McQVzZk+NdO2w9wHQ1e0hKTGhX+WSUU49dhEAjc1taLqGEJCRmkRqSiKTSydSlJ8z6PuFECxbs4mHHn+N7VUNyLLEv+67CVmWCIU1Vq6PnB4zxawiS3vWFLy4LwAEZ+Tm5v7IeHClGo8a/SyjmTjenhBnNJzanlG0R9gs7ArrPOvuTW16vH6efuUDnn7lgwHfc9Xl5zJ39jT2zsFOUr/v6XS6+P5Nf+K4xQdx6MHTmVxaMOBi9oBgpNLtdPPae5/y0pvLqG/eHXv8/NOPZsakIgCWrtxAt8sTVf97zormqQqlJpWqqDMogT1BtZwEvDgQABSQTjN+wImGGj+/ro/Y9g8k5ybayFJlHup2ExpmTS8671R+cPGZscWRZGV8xsBLYLKlIqsqIEWGT/qcIATFE3M44+TD+ePDz/PwE6+RYLMwqSSfksIJ5GZnkJOZisNuw5Fgw263Yrf2j+PTUhKx2Sy8vWQNmyvq2LSths0Vtf2KWubOmsRVl3y7lzj7YGUvnzLECWgj0wLmGAAiZkCcaQRADNLFE4sPk2WxtOfvSSYTT0/odcDawyF84su78HUhjSdcXtYOUtiRkGBh2Zv/wWwYDhnydKKPxyEQkowlMaOH1iPo60/mvPTWJ/zhb88NdPrnsPKzq87jrJMP58Tv3cLutoFZwumTCnnormtjRFBbp5OTvncLmqaTpSg8kpXypX5ih65z+e4u9F7T7UrJSE9ft25dKC4MlOXe0A/gGEMYoSHwi7GJ3wpNCr9IS+T36Ukck2AlvU+WS+jELT4QN+J9TEX0zh8MByJHyu2oaYor0jjjxMN45m+3ctAekFY9R8EM1lh64pHzeOTu6+JYwNfe+zSmIeZZv3xSLE2WmWKKcyITnR0dCwcwAfrxRvt/kMViCP30MbfEU8wmpphNgJ37utx87AvE+IL2jm7SDX2FkjyO5JEeBsWEFo7U3l1724O0dnTxyqN3kDchoh1KCnP5+++vZVNFLa++vYwPPvkMp3v4OQfuqAOWYLHg8/U2dJQX5/HjC0/jsAXx3d6BQIhnDD7REbaxqX6aZTGxJdir2XSd44ClMQAUFRWlIJhjpH6nGr3/cT6GJbuPFti8vYrDF87pdU5HqAF27u5gQlba6NZfC6FISqxH/I+/vIIf/OzP3PmXp/jbb6+Oc/xmTCpixqQibr3qfCqqG1i/qZKqumbqGlto2tWG0+3Db+jcCUXrGhYdPB1d6BRPnMAhB09nUvHAuZmX315Ge1ck4ik2qZSZxuZMr4gjaQwHxTHAL2IAUIRYCL2dnAeYzbEG/xBiwIzfWEpRnx+6ev3GOABIihqbFTyUPPrUG1x96XdISR55Xl4LBeKa7qaWF/KXX1/FD26+j98+8BS3XvXdfs0gsiwxpawg1r5llLCm4fUFMKtKrODj9usvHPY6gqFw3HiYY8dwsOVkkwmzJMW4GAnm5ObmJjQ3N3t7fllcv/lcQybPuxfKsKebzRgjrKUr1vdz10fiB+RkpXLHff8Z1WAnoYUI++J5hgOml/KjC0/l1beXc+XP/0J90+4Rf56qKCQ5EkY9z+jF1z+OOYoOWWLxGALAJPXLJ5gsimVuNPSDtOTUm5F659D9MDmJnCj71KVr6OMci1sliR1Bjeaop93Z5eTUE48gyVh/IES/1u2+kpRo50+PvEiiI4GZhqriPbKbU0vYsKWKNRu289Ibn1Df1ILNaiEzLWnUU06Gk9a2Lm787SMxk3Fhop0ZY1wVtVvT41r1JEna0tndtUKNbrBZRq9wWtT+hxFfKvYfjRxps8SFhh8uXcWF557ae8Hq8PFweXEeB82ezAP/fIU5M8oGVNEjplJlid/89CIuvPYPtLR18uaHq3nzw9WoisKMKUWUFuSSmZFCblY6VqsZh93Wj+nrmRQmyxJHLjpg0MTPPX9/Hm/UScxXFU60j33p+xSLCsYRC5KYCSBNyp2UoZmCsXRWqVnluZysqPev0bmXTtsOCsH3d3fSHU2ATCot4OXH74t7Tcjdjj6MQ7qpopZLrvsD+TmZPPnALV+6j6C6rpnLb7rvS00oOftbR3DzlecM+NzytZu5+pd/jf39i7TEL03+DMYHXNoSN5thfVVd7VxZNwfjxpCXGkq5AmLvlWyZJYkLk3qdt4qq+n6HO8lm2/Ae76QiLvjOMdQ37+bm3z36pVvJSgpzefqvt3DA9NI9ev/hC2ZxzWWnDxwmenz89v6ner/LpDJ3HBa/hw/o00s4DZCVlOTkoyQDBXx0go25UQemUwuzN6v2ik0qXwTDtEUXTVVkDl8012C3ZLTg8NO6Dpo9iZVrt7B+0w7Cms68A6Z8qety2G2ceuxC5swsx2IyoWk6Hp8/jh2UZYmM1GSKJmZz4PQyzjntSG644izO/tbiQQdj3fnAU3FZxAuSEvp2+YyprAkEae3dEGq6I+MxVZakQuNGz41ebAgx7s5fP2YWuDQxgRvbI70E/337Y37y/fNIjraeS7KCrJqHdQZVReGuWy7jwmvv5t/Pv0Nedgann3jIl7s2SeLg2ZPjytj8/gDBqONmt1nipnkMJ0s+3dBvFrFDGt8zvPr2FuiKXiQLPX6eb894l6C+b0p3ys1qLGTx+fw89dKbcc8rlpHNC8zNyeDe236E2axy19+e5v1Pxv4wbqvVQpIjgSRHwqgWf+fuDu68/8l+jz/r8o6r2c3uc40yokgG4gYQZ0VRsjftf1+ZZKiAeerFt/B6/QZW0IysjsxOzppawp03XhJxrv7wTz5c/hn7Wry+ANff/tCAU89qwhp3drjwj9Pe65d3kchR0lJSrwViIzp+lJKEWZJw6mH2hQ4ICMEzbh9dUQ0UCASxWCwcdOA0AwgUtGBgZH5FwQQyUlP4eOUXfLD8M1KSE5k+qXCfLH5bp5Mrb/0L26sbhozXN4ZCLLJaMI+xSditaSz3Bw2RIOuVtJSUW4hO+lKjAADo1sJ7/QY1hTXu6nTF5a8BvthcwcnHHU5StDhVkpRIJm+E1zi1vACb1cKn67awbPUmvP4gB82aFDeAabxl+drNXH/7Q9Q1Gia4SDIZ0+cR6G5DGBzKdk1nbSDEXKsZuzx2IOjWBR8aklJIYquSnpLyK6KDnRMVmYuSHISEwKNre3XXv+jx8ecuj7GIMSZhTaN5ZysnHnNoHDGkh/yDD/rtI7OnlZDoSGDl+q18saWKFes2cdCsySQn2cd91//+b8/wl3+8gsdgyiRFYcLBx5JSMgNHbjHuXXXooYBhsXQ+8QWZZjH1U917Kh5d8I7XCACpSklNSf4lSGaIjHy5IMlBQOhjUvwxnAjgY1+AuzpdrPGHGApyNfVNJCUlMmt6eTRikJAVUySZM0KZOaWY7IwUlq/ZTEtbF/9771MkSWJaWeGoZxgPJz5fgH8+9w633v0PtkSHYcSiFJuD/ENPw549MerY2kjMK8Wzsw4t2AsSvxAs9QXJV5URtYYNCwAheNMbd9L6DiUtJfV2ojmBFEXhvEQ7Xl0QHGcAVITC/KHTxRteP74BdrHZkYIkK+iGDqRP12wgKyOdaZNLYmGhJMnDhoVxlGhZAQfPnsyKdVtwOj2s/nwbr7+/kpQkB6WFE2IjavdUWju6+fdz7/KLe/7FirWb+7W6KzYHGQccjj0jB8kwSlc2mXHkl+FpqUcL9HIdGvCpP4hdluOc4z0CpRC87okDQI2SlpLy62gITqoscU6iA7fQRl39O1Lp1HUe7fbwqNMTN0mshwmwZxeQdeDhZM0+lMSJ5bh31qJHHT4hBEuWraG+aRczp5bjsCcgKxHmUoyiZCwnK42TjppHe6eTqrpm3B4fH336Oa+8swKv18fE3CwcCbYRf54/EOSD5Z/x4H/+xx8efJZ1GysGPaVckmXcdVvpqtyAEJCQ2TsiT1ZNJOaX4e0DAgGsD4TwC8Fsi3mPDw7yA/+LA4BUL5UWFgWJzvfPU1X+m5vFrnBwzAEQBl73+Hne5cXb77MlHLnFpE87GEty3DlThNzdNCx5mXAgvgLHYjbxrRMWc8rxhzNn1lT0oBctOHiVjt8f4LX3V7Jmw/ZYksZqsRAOh1n52dY4ylhRZGZNLWHOjHJmTSshLycDh82KxWrG7wuyu6OL3W2dbKmo4/MtVWypqBt0wYelaKfNI2PqwfEETdBPwyf/I9DVv+PocJuFq1McezTidbemccXuLuNDb0slhUVuCewAWarMm7k5NIUCY8oBrg+E+IfTQ9MAkz9sGblkzT4US8rgHUCBrlbqP34lNmGkP1WbwAEzJzO1rICC3DTystNJT00iIzUJq9WC0+3l0uvvoWYcB07vMcMoK2QvPJmknHyMJXlaMEDT8v/h7+hfizDPauZnKY5R9ws0hjWuau0yOmH/lUoLizogMgAqVZZ5Jz+b5tDYjGLr0HQec3pY4e//eYrNTtbMRSROLGcko1U8u+po+vQNMMwXzMzMJCMzk61bBj9/2GpSsZhVuuNt35iLDGRbTJSlpVDZ0cXOPodLFJlUTkhIoMik0qFp/NPppi0a+tnyJ5FYUE5iZh6KIRknwiF2rfsQV2P/rqPjE6z8KHl0EUxNWOM6IwAkXlCJtN2kArh0nfAYbH0BvOnx86TL29/Bk2RSy2eRPnUe8ihOAUnILiBtyjw6tvTy5+WTJvH4U0+yaeNGNm7cSHVlFU1NTXR2dtLZ2UlzcxNejxd/lFeQgW/ZE5hvs9AYDvOZP8iGQHAAk2Tw2IHFBTmsbdpNt8FMpJtUChPtzCrJY/aB05h75DwkCW6/+d64xS9UVa5OTeo3Um+axcwlu1oRQMjZRtCXR2dTNUmZeZgTHNFQ18SE+cdhScmiffNKhMExf8frZ77VxJxRZA+9fXwuISSnCrQTnfodBjxf0vvfrek80OVm4wA20ZaZR/aBizEnjvwAKF0L43N24u3uQFgSsOaW4t9ZDULw6YoV/O0vf+HiSy9l+owZAxZcfPjBh1xx2WUAnJto5/pUQ5t8EoSA1T4/73n9fOT14ekDhjDQ4fLx7z/eQOaETDxuH4lpSVj6LOiO9Vu58TcP0xDVdooE30tM5Ipkx4CM3gyziUlmE9uDITR3F0LX0YGuXQ0kJKfhSM+KakaJtMkHYrInsmv1e3Eg+NAbGBUAnHrfMwtEu5KemnIGkVMpATjFbtsjB0MXgnd9Ae7udNHUp4lCVlQyZi4ie85iFMvIvOtwwI+nqxVnazMhnydG+KiOZEzJGWheN3oowMpPV7JuzVrSUlNwOBwIIVBUNRbOLVnyEZ98vBQJuDsjvR+zpgAFJpUjEqycm+ggR1XYqWl0Gnb7Ln+AV979lNo1m8hKspOWnYHFUGjy7lOvc8NfnqI9FPnd5SaV+zLTONmegCJJCMCra3h0HZeu4dQ1XHqYDk2PbBQhMKdmI0ePxwkFfAS8HswJduTosXKWpDRkxYR3dy+NnKkoo6od3BYMs8ZQdSUEr6kIabexL253WBt2IlV/Jy/Iv11e6kP9nTxrahY5Bx2NOWlk5dqhgBdvZzsBr5vB+gIVm4PESQcSaG0m3N7AmjVrWLNmDdOmTeP4E4/nyMWLSUpOxmQ288mSyHyifJNCVp/fpSOQDGd32WSJMxx2vuOw85HXxyNOF5XRevqgELxXt5P3/vYs/O1ZUlUFSxRkLcHIoKwkWebCJAcXJMV76e3h0ICNNeWGBhg96EOx2Q0bwEdHYzVJmblY7BF6PqVsFu1bV8e4EfMo48H2PiyrJNOiCoijqXaOAgAVoTD/cXr7ji2PbnuJtElzyZh2sLHifGCfQQgC7m683e2ER5jkQZKxZOVjTs8htLuBYHsTW7ZsYcuWLTz41wcpKytj8pQpbN0cOZA5P1pVrAtBhxYiIEQcvCTAJMmYJAmLLHNkgpXFNivPub083OXs5yd0hrUoTdMrZSaVi/tMTteH6KrKN9xnfQBGU+g63S2N2JJScaTnIMkyitkaA0D+KItTd/fRzBLUqghqjU54i64xyLF/cfKy28eTLu+AGUNTQiIT5h+HNS1nGPuu4Xd14nN2ooX3LI6WFBXzhGLUjDwCuxsIdjQRCATYvHkzmzf3nsadGN2tHqHhH8DpE0BQ6ARFpBZSBjJUE99NtHOi3cZ/3V4+CwRZE238uCDRwbF2G7vCAf7l9PJFIMRngSDdmh43TmeoCCdTkTHLEkFdwBD1Fz5nJyG/j6SsvDiCaLSjY/rmWcJQq+pQa7zcgdR4X9kUDPGEyzuggrbnFpMz92gU8+C2SQsF8Tk78Tk7Rn0486BhmMmMLa8Ua3YBgdZGAq2NcdlCJboOoRF+nQ74dYFZiYTHFyc5OFsITmtqYYKqcGVKIgJIQOOnKYlc0tKBBnxn5278QjDHYuaYBCsnOYYO1VJkmd26NmwkHA76aa/Zih79TSow3TI6ADTH8zChotraRtUswpvDUm+ioSY0fIp1qW8AokiSyZy5gNTyAwZFfSjgxdvVQcAzsqlae6QRVBPWCcVYsib2AiEc2qPuJqss0xyOOE5r/QE+8flx64JEXYqGVVrU9ksUm0xUhkLMspi4KyMtdmjmcEm1JFlmN5pxKs/gIHD3jt2daTGNanKYUxd0xGkZsX0JhNXtDQ3NpYVF7UA6QF04jC7EkCyTr89vUm0OJsw/Dlv6hAFZAb/bibernXBwfMmYvqbBmlOEZDLjq99OQAynkAfKW2hsCobYFdZoCmu4o2FUk6bToWn49LDhBkd21xSzGUWKDNIKoRMYprSuR/tKpuHNrubrPdRqvnV01cP1/c5sljYav39jbJcKqBumlDpFib+NmbMWDbj4PlcnbfU7cO5u2quL3zdiiOxWEXfDRxSR6BpzLSoXJdl5LDuDF3IzmWMxownBKr8vpsM+8Qdi9lUQmZ3s0sP4R9BV3cM7yObhax1DbmcMxPNGWT5eEQz3cQDFph5TgiSxSgiO6HlyezBE8RD558lmE68ZqFVn7VYS88v7vS7o86KHw+xLUawOkKAxeh3KKPlzn67HJqGb6O1k/nu3hylmEx2azufG2BowIzGSWCYkQWvULivWofkRoevoXmeMZ0gbZZFI3xPcdCFWxQAAfGp8cnsozAlDfNhUkxo3VcfT0kjQ3YXZkRIfDVgTCBjs1r5JtsgotkRavS58uhg1APpKjxloDGs0DpDc+ke3m7c8fqaYFMpMKhNNCgWqSrKRgBKRbfyFP3LGgmKzD9v8qnmdMRZwtOpfF4Kt8RpAM9lsq2MAEIryKYYfs9EfguTBPzBdkSkzq+yIfaigq2ojWbMPi3ud2WpjfxBTUjp+r4vVgQDzrXvWdasLwRNuL8v8ARRFQdM0LFYrhx92KKd9+zQyMjL5ZOkn/Otf/6LZ66U5HI6rvzNLEsmKTJosY5ckbDJURyMuU0rWCBzA3iTOvFECoDKsxeVkBGzcvn27KwaAqqqq3aWFRZuB6QBtuk5jWBtyQPFCi9kAAHDWbSNz+gIkQ4JHNVuQZBmh79vxoGpiGuyq5WOfj0XW0bdeuXSdP3RG8huSJHHDjTcwd84cbDYbFsMklVNP+xbzFszj7w/9nRUrVsSbQyFoDWu0DlD4Jo2gp6AHALmKPOrysI39jr2XPjRS4QCkpqSWSoY5ATmqwuQhSpDSFSWuvEjoGiZ7EtbUzDhXI+TzooX37UlfsslMoLWJ5lCY7ybZ+2XFhpKmsMav2l1URX2IGTOn88Mf/hBr9FBriJzvm5iUjC50Emw2jjhiMYcceggTciawfv16ssxmjjv6ZKafdQlTjz6F1MIyvG43vq7INFHN48ScnDFoB7TQNfwNOwDB0QmWuNmNI5EX3D52GRx7SeLXnV1dlXFOsSzzjvFNK/1DuzFZiszUPgAZKG9t2h/MgCSjJqbi0nWWeEcejawOBLmxrTs2twBg08bNfPB+7xwfWVHIm1hAemYmqtlC9oRczBYLJcXFzJ0bOQiqMD2DxJPPxj4hH0daBmVzF3Dy1bdy2CXXIKtmhBbGXblh0IKXkLM9Zv/njdKEuXXR1wH0+4LBpX3DUFCUj4GYx7Y1GO7HHfeVI/ukRH2tTf1Kt0yW/cQPiJaavebxIQ/DBnh0wd+63dzV4cIrBBOtVk6ad2jsZv3lgQdo2RWpLkpLT8dkNnPLTTex4KCDeOjBB5lYWERObh6hcDR6MA/col48+yAWfvcKkGT0UIBQV9vA6r87Mm0sWZb6TvwaVlb4g3Hsp5B4zzgpNAaAysrKgIT0utFRXeobWnUvsprjct1C6Lgb41u6Vcv+4whKksSaQADnIOycVwhe9fj5SWsX73kDyMAxU6Zx5G/+Ssb5P2Tx5KnRLeTnbw89FP3Nkfc2NETStI3R/9odDhxJkaZWi3XwGQXFB87D7EhCttgwp2f3V/9CEHJGAHCw1TLqMrCPffGaXNKlFwcioqLoEHFPLvENbQbsssRBfUaZ9DUDsqLElTntMyugmlDsKZHTvA1OUVAIPguE+HOXm0taOvm300OHrpNmUjjzgivI/dGtEN3B+VfcSH5UBa/6dBWrVq3C447MF7r/gQf403338evf/rZXk7g9UaZ08E2w7o2XCbq6sOWVDZg11TzOmGmYP0rb36brbI1X/6EQ2mtxGzT+JqlvEQp3CEjriXWrQ+Ehe9aPtFnjav787TsJ+9yott60qGq1oblD+xwE5vQcwu5O/t7lZoPVTLuusy0Y7tcIOyUpiYOv+gVSdm4fEJk55MyLeOHJR9CBJ594kvnz5xMKBsnMyuKsc+KngHi8EQBYEhwDXo/f7aJi6VuYktNjJqqf/e+KtJJZJInZo0z+LPUG+mZr36ivr+8cVANUVlYGBOIp42MfDaMF5lrUuEMNhRB4dtXHq1/z2JuBUEcLzi0rRzxDEMCUmo1iteMVkR65DYFQv8U/OCeXeb+6v9/i94jl4MOZOyHyXEXFDtasWUNXV+fAvkRUA5hT0gdeoKcfQw+HsOWVD0b/EeyMVAUfaDGNqllUAEv6mHBJSP/sFyH1e6OmPGr8+11vANcQYZMsSSy2xasmY9lSxA8Y+6FH/tZG9IAPe2pGXIfNkGZAkkgomYFs6vWkZYstNidwZlo6k2+6C4ZJzEw6+9JY/Pz0U8/g6u5Gi4aJHR0dhKPnJHqjGsCc3p/oaamuYteW9ViyJkauYZDYv0f9j5b8WR8I9k0AtSRnpr09LACqG6s3AjEWIyAEb3mH1gJHJfQ5SXR3Y1yePwKAsW111v2R/nqzxUZSZu6IP1+xJJA0fQGO8gNwTJ5LQsFUEIIUk8rsn/wCeQSkjFIyhfkTIy3mW7ZsYf369XR3d/H+e+8xd/Zsvn1qZLqZJ3ryt5LVP1G27NlHkVUzluzBW9WDHS0xO33wKMfGveT29QE/D/cMiB4SAFFVETee6zWPf8ihBQWqSrmBE9CDfgKdvV0tsqxER7KPofQATJKxOJJISBnFiFhJRnWkoljt+BoiZ/cdtuBw5LSRH09T8t0rMEdN3/PPPU93Vxc11dVomkZtTQ2apuFxOSN1vdnxo2E3ffwenpZGbPnlSLIyiPbXCUU7g+ZYzbGKppFIRSgcNxsYCITh4QE1+EAP5tfXvArUGqnQ931DEyhH9iEovLvj/QDVbBnb9Y/euJ7eAktC4ujNSHMNmt+DXZZJ+fYFo2MXcwuZXxQZRvnZZ59TU1XN6d85nT/edx/PvfgiiqLQUl+PXVGQDXRxOBTgi7deRE1MxTREN1S4qzV2RsKh1tEyf96+DsEztbW1u0YMgCUQlhD3GB/7r8c3ZPv2YTYzJskIgMZxBYAky8iqGWkPu3n1oJ9AW+Qac+0JSHuQryg49YJI2bcQvPrfV/G4XJx19tlMnxGZvLezoZGsPhzA8uceJ+z3kpBfPuRnB9ojR8ZaZGlU2b+6kMZaf5ym1zSZuwcF8mBPWByOxzBUDLdqOm94Bh/RlijLHGicMN65O66JQTWPrSOoqOZhc+hDieZzxczIDpebt2/9Ea6X/z2qk0mU4nJmZkZ28YcffEhnRwfO7t70d0trK5nJvU0wrfU11K9bhiUzH9lqH8K/8cWSP/MtZiyj8P4f71OrKSE9W1tbu23UANi8eXNQSPHIedblo3OInTLPEt/XFnR2jhsAZLMVxbTnWkWxJcZpj92hEK98/D4f3/pDfEveGPHnTD464vD5/QHefOttujraEUKgaRrtHjf2rJxYePzx4w+ComKdMPQc42DHzl7NOgruf7U/GDuos2cVwpK4c8j7OKSKq619FNhipEqfcA7egn2QNb533d/ROw9HNVkGnZW7RwCwWOJSz3sCIHvp7H7TR+t9Pl545RmW3/pDPO//d9hUtmXBERRHh1q/+up/8fl8OLu72blzJ5ouMOVHFnvt6y/hbd2JLa9sUMevx7ntAYBDlpkzwlNDQgL+7fT0jXsfHGr3DwuAJRCWdOmWvsRQHw8zJimyTI6h2cHXYRyIBIp57Magyqp5VCTQQKI6UkicOg/rhJJ+i1LlcfPSay+w9NYf4H392SFNw6y5kSGUHe3tvPPOu3R1tLNlwwYAbKXT6G5tYduSN1ETUzGnDl38EepqQ492Zx9iNTMYVLxRCvtZt5e7Ol38cHcnzfG1nF0hXb992Ps43AsqG2r+B+J9I8P0mNNjPIQoniQxkCiBzl197PbYOYKSYhoxATScM2nNKSRpxiKsE4r7aZU6n48X33ud926+nLb//AU6+w9tSDrpLJKiv/v5518gEAiwfsUKUlUVR1EpHzx6H0ILDev4RZy/ptj/H96HYHPrgve9fn7V7uSClk7u6HDyrMvHKn9wgGkrpJhk+Z2S/JIhv3REucXUxPSVkiy+H+Uk6NR1TJLEtAHOtGvXdNZHky16MEDqpANjtjYc8BEK+MYEAMLnRgiNpImR36eHQ/hdXV8KCKojBWtGHpJqijiJhpvq1nR27Gxi29J3sW5ehyMpGSUrN5ojULFXbqG2vRWP282E3FyWLltGuqSwo7mZlm2fY80uwJSaPQy55cHXFMmmpisylybZkYDKkMYTbi8PdLtZ6Q/Roo14iG+eJItz05MSX+5wOjv3GACdzs6OtJRUGTgyRmaEQsw2m8joy5xJ8F6MORQk5pWiRj1ePRyKNn1+edG8TtA1kiZOGhMAGFgrVHsy1ow8kGU0vycOCJqAhu5uNq1fScfHb5BQU0FCSjpJ02az+dMlCKCutpa6unqysnLY+sU6ZLMZe9EMGCZk9TZWoPsjPtZxCVZA8EC3m6dcXmpD2qCDOycWFHDZ5Zdz/AknYHfYqaqsMjKxdgl5QUd31z8ZoBtnxF7Z9OnTzX63ezlIB/U8lqXI3JeREtdyHRJw3q52eryEnHnHxhYp6HPTtbN+TAAQbKlDFhq5i06JfK/fS2dz7ZjnHISuE+zYSaC1Cd3vGZwZtNtp9/vjTlY3yTIhXcdeNB3TMLY/2L4Tb32vv5YkS/36+Qde+Ms497vfjTvFZN3atdxw3fWx2oQou3tOZX3N83sMAIgcLS9kZT0QO/V5kdXMTanxLNx1rV3URKuM06YcRMb0+ZHdEw7RXr9j1Ivg3rEeS04xJsNgCW/dFlTVRP5hp40rAOLYOXcXgdYmQt2tIx5QaUpMJaFoOprPFenq1cLomga6jtA19JAPze0csDt4IHE4HBx7/HGcetppHHLooYOOtWuor+es75xBW1tPlZFYVlVXd1g/R3g0N6CyoaGqrKD4x0IST/Q8tsIf5F1vgOMMCaEJqhoDQNDZYfDcTSM6/avfLtQ0PJWfY8nMw5ZbCrIS6ZOzJuz5auoaejiE0EKIcBgRDqPrIQiH0LVwpLE0ukhoYYTQEXpkPK0kKyMeU6uHwzg3Lf9STbCKorD4iMWccdZZHHHkkXGVyENph59cczW3/fJXPXv90OLi4tk1NTUb9hgAAJX1NU+WFhYeB9L3eh77e7ebLFXmgKhTaAwFjQCQouHbaKZ7AiQUTsFV8RmB1iaCXW2YkjPQg35C4SB6KBibrBHV2eihIHrQH/kXCiDCQfRgEBEOIEJBtFAQ9tIoXM235yefp6enc+HFF3PmWWeSnZMz6vd/58wz+fN999HZEfH/JF1cBFw/aiewH7qs1ndDqukMIKMnNFzlDzLHYiJVkWnR9NgoEi0UJG3K3BgJFPS5IwswGr/MZEHzutADXtA1NK8rRpoEXJ14d9XTXb0Jb1Mlvubq6JyAXYS62wi7OtE8TnS/Bz0YiOzcfTgKf6Ry0skn8p8nn+TQww7D4ehfUeTzelm+bBkfffghLS0tpKSmkpAQrxFNJhPNTc18EeUkJCjq7O76s9EZ3CMm5YuWFk9xcfHZsi6WAYkQGUN6Z6eL36cnM8E4YUToaH5vrERMUUbH3ulBHyFXJyF3x4DPe5pr9ugGJyclkpKUTGpaKmlp6aSmp2O2WEhKTsJsNmPtk2dwOZ1oukZXZxddXV10dXXS0dFJfV0dodDoy91sCQlc8YMfkJSUhMls4tMVK3jrjcjhGHPnHsg111yDrU/VtaZpvPXmmzz/7HOsXbOGsvJyfnnbrzh43rxBv+foY47myccfj1nnkoKSI6vrq9//UgAAqKmp+aK0sPAckF7r0SQdms6vO5z8NDUesSGPKwaAkbJ3IhzCXbWhd7ePUjIyMigrL6ekpISJBQXkTMghNzeXvLx8MrMyR3XCx5DeeyDApyuW01Bfz3vvvs/y5cuRJJnMWYdiy8hBTUiMHnVjovbdpwm6Iuo4GAxw5Y+vRIl676d9+9t8unwFXV1dNDY0RT87iBolpupq67j+mmvYsGEDKamp3PqLn3Pe+ecP+zvmL1iA3W7H4/FE+Q79FODLAwCgqq7urdKCouuRuL/nscawxl+7PXHNoyGfCxsToup8+K802exorg5kRUWyJyGrZhSTBUlVAAk94I/M2Nc10pKTmTVnDmXlZZSWllJaVkZpWRnJycl7RVXLikx+Xh75eXn4fH6WL1+OAFLKZvbf9RkTYgDQwho7d+0iPz9SLGK32znz7LN47JFHadm9m9bWVtIzM0mw29lRUcH5555HIBDgqqt/wuVXXDGgWRhIzGYzB86Zw7JPPukxmycD144JAACq6mv/UlpYmAnSL2KOYjCMbABA2LCLZXkEfXABP46cIjImHTj4znN2UPveMxy1cCG/f/ihfWarhSFWz8rMGPK11pQsuntzazQ1NsYAAPCtU0/lsUciJZlbtmyhpDRymGtXVzf33n8/Bx18EFbr6LOqM2fO6AUAUllJScmk6urqijEBQFQT/LK0sDAFpKtitruPCejdMeoIbqqGq20nQb8He0omisncL5OoRken7Wxp2W8ct/T09B7WZeDdmBxfttbQ0MD8BQt6ybYZM8jMyqJ1925qa2sJRiemHTwvMkza5/Px9FNPsfyTZTQ1NcVMXUZGBqVlZcybP48ZM2bEzEoMALP6aCNdPwkYOwBEQXB1aWGhD6Qb++1oA4M2mgqegNtJwO0ECVTVjGy2oJrMqCYLitmCYrLQtD8BICMjwnMM8FzI78XviafBa6v7O7ALFizgtf/9j8bGJkLB+GjpjddfZ93ataiqyoyZM3A4HKSmppGdnU12TjYOh4NQONwPAOXl5ZhMppizKsNJwJ/HFACAqKqru6mssLBLIP02znsNGI5KkffA+RIQDgUhFCTulqgqu9ojBRjSOJ+5N1J7m5CQgNfrJeh1owsdLegn4HHHRuQY2+Wrqqr6fcasA2bHAKDrOuFwOEbznnnWWZx51lmjvi5JkigvL2dLdKi2EBwQ08hjfRMq6+p+JyR+ZIw1jad9jkUKt5cfsOIPBOjo6Nh3PkC/8M6GEIKunXU4WxrxdLbFzUeSDFVM1QMAYMqUyCmnzc0RFd9XC4yavg6H0cJhps+YZnw4Mz8/3zbWGqD3h9XWPlxaWHgsSN8B0I0aYAw3qhQtMGlsaOi1v/tYbLaEmB8z0NgX2WRBj6bE6+rq4nY4QEFhpE/A7/PjdrsJBoPYDARPe3s7W7dsweV0oagKWVlZlJaVkZg4cFW03xvJLhYVFvVxAyKz7sbtoFpJkpYJwXd62ECEHm1+HMOyMDXiETc2NjL7gAP2CwDYo42gQugD/lJjV1I4HKahoYHi4t4awczMzFi+pLOjg/yJE6OfJ3jiP4/zyssv4XQ68fn8+LxeXK6Ig52dk8OsWbM47vjjOfrYY0hKijjJbnfE78jOjqtF0JubmwPjCgABnca/wgEfqtU+tnWBMQ3QuN84grHdOkgtoWSKr/Kpqa6JA4DZbCY5OZmuri7a2tsJRQd3SpLEhRdfxIUXXzRyFlXX8UYdz7jJyIImooOOx+3kREmT4gxzT52bGMMJoXK00ripcf8BgCVaxTtYDWHfQzJqqvv7ARnRUvPOjk6CwQBulwuv14Pf5yMQCBAKhdA0bdgMo9vpjL3G2e00LA47xowIGhQAKl3GOQx6NAQR2tgNjOpxqBoaGvbhkscvgjXaCDtouriPX1BT0xsKhkIhXM7uWA6grb2dUDBIy87mYdhIBVmSkWUp0jAT/ef39/peFRUVvVcsWDXuAAiD36he9OixbmIMzyPssaeN+xQAfTVAFACDzPuRlXgT0NjQgMftorurC1/UYZOjkVJn+8iiG13T0Ifo2xJCsHzZcuNVfDjuAFCFCBqXumdiqD6GeXhJUZEUhfqGeoLBIOYxLDsf8TX0cfWs0TauwTSA1Iekqa+rZ1dzcx8lEeFK2jrax+QaV69eTWNTrNq41ZZoWzruABC6HjKOPBFaT31AYEy/RzYnoPlcVFdXx2LovQqAPk5tQkK05WtQAMSDdHdr/2PhTFE/oaaqmuee6y3jCwYCOF1OXE4XTqcrTpvaHQ6KCgtZdOghlBicSpfbzd/+ZsyViP9s3rw5OO4A0HU1KCl6Px9AC43tzEDZakXzuajYvn2/AEBSclJULYcHMVvxAPD7/LjcbkyqifXr17Fs6TI+jxZwNDQ28s9//HPI78/Py6OkrJSS4mImT5lC3oTeWQQup5Nf/er22EQzAR45bLo/TlOP242xSN0Y7kH75lWRokj72KZpFXMCIaBie8U+sfl9AdCThpYHKeKWFDXChhk8+CsuvwKXyxkL+YaT2bNnc9LJJzJn7lySBiCA3G43S5Z8zNNPPkV7h7EkT9xV2VTZuFcAMLGqqqOhsDAMkgoQDnhp/WIZstmCJbsQS3rumNCCPeNVKiq27xsA9ElupUQBoAwW7koSkmpGGExhD5Uty3JAklinadpyIUk1MjTruhzNpOlHSRK3AFRWVvLRR0vYuGEjdocdTddwuTx0d3VQW9dAy65d/UNEiReqaut+389XG68bswTCpUirgUVxpiEYwNdQQaClHmtOIea0CV8KCHI07NpfNEAPAzeYBtCDgUhCKP7hJpB+r0k8UV1dPdh49Y9KC4sWAEd6PB5WfrpypJcYkAQPWRz2m6F/qKCO580RiHslpAUDEU560I+3fjv+lnqsOUWRpsk9SBTJloQYGeT1eEmwJ+wTEPTsuMQoAEQoiObuRvd70QJeNJ8bzecaODyU+KCqtuavw3yNplotp4UDgTMknclCYhJIhSBSAQdgAuERSG0S7AJpvUBfoUvS8tq62q5Bo7XxvDHVdXUvlRcXHyk0cY+QGLByUQ/48NZtJbCrFktOEebU7FFphJ4pIULX2bGjYp/kBGRZRot2BPXYZGfbbmjbPTIA6dJrI3lddMT7v8f02sf75uyoqVlaWV87X0IskuCfAgbsr9KiQHBuW0OgfefIR8xLElK0x79i+77xA4yTxWw220gLTgWwQhLSqZX1NS/uK+JK3ltfVFlX92llXe1lsknNlSSuB3YOqBH8Hnz123BuXoGvuQrN5xk+EtjHfoCxPUuSJJKSEo3PteRPnLjimGOOXiJJkrFD962qutpDKutrXmMfirq3v7CystIJ3Jefn/+wRTZdjiRuBvL6bY9wiEBLPYGWehRLAmpKJqakVFRbEvTZYT2RgPGgyL0pSp8qJ0diEp2dXTz62GN1BQX5hUA2wNo1az/r6u5OjWx/qYb9QNR99cWNjY0+4IGysrJH9HD4UklwA4ZDrOPNgxetpY5ASx2SJCFb7Sg2B7LZimQyI6I086ZNG9E0bcxq/kduAuIVaY8f4HDY4iZB5U3Md3V1d7M/ibyvL6CysjJQXVv7UFVd7SSBOBMYMr4RQqD53AQ7duHfVYuvoYJgR4Tp8nq87NixY+/fxD4awBYtCulb/jZt+nTDjRep3wCgj/mvrqt7qaqudqEQ8mEC8SIw6sMGN3z2+T5wAuNvY09SStPjU5/z5s3LNHiAM74BwGDhY331suq6urMkk5qNkC4CnomQJSMAwIa9DwC1T46/BwB+jzsu8zV92tQyIFohK6b1FGb+v/QBRuEwPh79R3FxcaEiRDG6NFFIZCOIHqUprgcmA6xft37vO4F9UryW6MBMj98XNxBJURSTIzFxm9vlmgmSajKZZgKrvwHACKWmpqYOw/TSHiktLMwH6ZcAVZWVtLe379UqYbUPAMzRjJ/H5emX+iwsKOjsiVYkIebuawDIfA1EkqQ3jU7imtWr96kGUKMmwO1290vvTZ3am7KWdOZ/4wOMhamorV0NxAb4rV61au+q0T4AsEYLQ11OV7+U4OzZs3vz4YPQ498AYA8iCCTeigFg5d4FgCRJcdxDTxjodPefbVBSVmqc9TK5qKgo5RsAjI3EzEBFRQXt7e179cuNZsCeYIv6AK5+jFRaSko6vaXEsqzJ5d8AYAxEg3dAhCHSENHbD793xGQo9eqpC/R4vWp/zkBRgZDBDGR/A4AxkNra2i6QYrXPexsAZsNZCbaoBvB6PXEFgLqu6ytXrtoAwnjf/fvyvql8nUTwJhKLAZYt/WSvto0bS9J7pnU1Ne1MePvtd1Y3N+0MrF+/lqqq6sm6rs829EcKXdYrvwHAWDlj6G8I5LsBWltb2bZtG1OnTt1LALD0A8COHTty77v3vtzBr1d6uba2pvYbEzBW4WB9/WYQsR310Qcf7D0fwNw7xiZteBJKR+Jxizfh4m/CwLGXV3r+5/333turoaAaPTMgNSWlX0pagEcIliK4WWjylKra2os2t2527+ubpX7dVl+SpJeF4EaAjV9spGXXrj0aszpq90MIFFkhRKRCKDMjg13R+UWS4M8T62tvXALh/e1+fe00QGVt7SoQjT2L8v7774/7wrucThrqavH7e3M/PYMdAIQkXPvj4n9dTYAwmoF3334bXdfHdeF379rZb5ZPUbHxSFg5YX+9WerXEADosvykrIufACxftpx5cw9iwcIFLDrkEBYsXEhxcfEeh4eBQABXdzculzMy97/v834/mzZvpsE4tEISE/ffyOlrKqWFRVuAAWNAu93O1GlTmTptGpMnTyE3Lzc6RzgvbiBTjKnx+/C43Xjc7thOD4fDdHd10djUREN9PTW19dRUV7Nt27ZYj4BB3qyqqz35GwDsRSkpKvqZJLhrtO9zOBw4HA5sCQnYrFasVguBQJBgdOH9fh+dnV2x4UsjsRaSxImVtbXvfAOAvShleWX5Qg1/AezL4ku/QPy4uq7un9+YgH0jSklByULQT5IkjhQwUwL7XvjeXSCe1GX5r9EqJr4BwH4S9ZSUlJTJYTFbSBQhiXxJSHkCkUvkICw7kAwisaetvWcnAz4QHpCCIDpA2o2gFUnslmAXQm4VsmjVJWnr/r7oRvk/XqdXwQqfQ7UAAAAldEVYdGRhdGU6Y3JlYXRlADIwMTctMDktMTZUMjM6MzQ6MzMrMDA6MDBmHi2TAAAAJXRFWHRkYXRlOm1vZGlmeQAyMDE3LTA5LTE2VDIzOjM0OjMzKzAwOjAwF0OVLwAAAABJRU5ErkJggg==" vertex="1" parent="1">
          <mxGeometry x="338.3" y="110" width="43.4" height="60" as="geometry" />
        </mxCell>
        <mxCell id="gHiC4rJ2sROC7v4eEeCG-10" value="" style="rounded=0;whiteSpace=wrap;html=1;strokeColor=#CC6600;" vertex="1" parent="1">
          <mxGeometry x="600" y="40" width="120" height="120" as="geometry" />
        </mxCell>
        <mxCell id="gHiC4rJ2sROC7v4eEeCG-11" value="" style="whiteSpace=wrap;html=1;aspect=fixed;strokeColor=#CC6600;" vertex="1" parent="1">
          <mxGeometry x="600" y="240" width="120" height="120" as="geometry" />
        </mxCell>
        <mxCell id="gHiC4rJ2sROC7v4eEeCG-12" value="" style="sketch=0;outlineConnect=0;fontColor=#232F3E;gradientColor=none;fillColor=#D45B07;strokeColor=none;dashed=0;verticalLabelPosition=bottom;verticalAlign=top;align=center;html=1;fontSize=12;fontStyle=0;aspect=fixed;pointerEvents=1;shape=mxgraph.aws4.t3a_instance;" vertex="1" parent="1">
          <mxGeometry x="600" y="40" width="30" height="30" as="geometry" />
        </mxCell>
        <mxCell id="gHiC4rJ2sROC7v4eEeCG-13" value="" style="sketch=0;outlineConnect=0;fontColor=#232F3E;gradientColor=none;fillColor=#D45B07;strokeColor=none;dashed=0;verticalLabelPosition=bottom;verticalAlign=top;align=center;html=1;fontSize=12;fontStyle=0;aspect=fixed;pointerEvents=1;shape=mxgraph.aws4.t3a_instance;" vertex="1" parent="1">
          <mxGeometry x="600" y="240" width="30" height="30" as="geometry" />
        </mxCell>
        <mxCell id="gHiC4rJ2sROC7v4eEeCG-18" value="" style="image;sketch=0;aspect=fixed;html=1;points=[];align=center;fontSize=12;image=img/lib/mscae/Docker.svg;" vertex="1" parent="1">
          <mxGeometry x="331.34" y="260" width="57.32" height="47" as="geometry" />
        </mxCell>
        <mxCell id="gHiC4rJ2sROC7v4eEeCG-19" value="" style="image;sketch=0;aspect=fixed;html=1;points=[];align=center;fontSize=12;image=img/lib/mscae/Kubernetes.svg;" vertex="1" parent="1">
          <mxGeometry x="635" y="76" width="50" height="48" as="geometry" />
        </mxCell>
        <mxCell id="gHiC4rJ2sROC7v4eEeCG-20" value="" style="image;sketch=0;aspect=fixed;html=1;points=[];align=center;fontSize=12;image=img/lib/mscae/Kubernetes.svg;" vertex="1" parent="1">
          <mxGeometry x="635" y="276" width="50" height="48" as="geometry" />
        </mxCell>
        <mxCell id="gHiC4rJ2sROC7v4eEeCG-24" value="" style="sketch=0;points=[[0,0,0],[0.25,0,0],[0.5,0,0],[0.75,0,0],[1,0,0],[0,1,0],[0.25,1,0],[0.5,1,0],[0.75,1,0],[1,1,0],[0,0.25,0],[0,0.5,0],[0,0.75,0],[1,0.25,0],[1,0.5,0],[1,0.75,0]];outlineConnect=0;fontColor=#232F3E;gradientColor=#F78E04;gradientDirection=north;fillColor=#D05C17;strokeColor=#ffffff;dashed=0;verticalLabelPosition=bottom;verticalAlign=top;align=center;html=1;fontSize=12;fontStyle=0;aspect=fixed;shape=mxgraph.aws4.resourceIcon;resIcon=mxgraph.aws4.ec2;" vertex="1" parent="1">
          <mxGeometry x="280" y="80" width="40" height="40" as="geometry" />
        </mxCell>
        <mxCell id="gHiC4rJ2sROC7v4eEeCG-26" value="" style="endArrow=classic;html=1;rounded=0;" edge="1" parent="1">
          <mxGeometry width="50" height="50" relative="1" as="geometry">
            <mxPoint x="600" y="300" as="sourcePoint" />
            <mxPoint x="650" y="250" as="targetPoint" />
          </mxGeometry>
        </mxCell>
        <mxCell id="gHiC4rJ2sROC7v4eEeCG-28" value="" style="edgeStyle=orthogonalEdgeStyle;rounded=0;orthogonalLoop=1;jettySize=auto;html=1;entryX=0;entryY=0.5;entryDx=0;entryDy=0;" edge="1" parent="1" source="gHiC4rJ2sROC7v4eEeCG-1" target="gHiC4rJ2sROC7v4eEeCG-9">
          <mxGeometry relative="1" as="geometry">
            <mxPoint x="240" y="200" as="targetPoint" />
          </mxGeometry>
        </mxCell>
      </root>
    </mxGraphModel>
  </diagram>
</mxfile>
